<?xml version="1.0" standalone="no"?>
<!DOCTYPE svg PUBLIC "-//W3C//DTD SVG 20010904//EN"
 "http://www.w3.org/TR/2001/REC-SVG-20010904/DTD/svg10.dtd">
<svg version="1.0" xmlns="http://www.w3.org/2000/svg"
 width="788.000000pt" height="788.000000pt" viewBox="0 0 788.000000 788.000000"
 preserveAspectRatio="xMidYMid meet">

<g transform="translate(0.000000,788.000000) scale(0.100000,-0.100000)"
fill="#000000" stroke="none">
<path d="M3652 5740 c-26 -25 -33 -51 -30 -110 3 -44 4 -45 41 -48 l37 -3 0
45 c0 39 -3 46 -20 46 -24 0 -26 22 -5 44 16 16 20 46 7 46 -5 0 -18 -9 -30
-20z"/>
<path d="M3776 5648 c-16 -62 -36 -148 -46 -190 l-18 -78 38 0 c39 0 50 11 50
51 0 16 7 19 49 19 46 0 49 -2 57 -32 8 -26 16 -34 38 -36 44 -5 57 3 47 30
-10 23 -70 227 -91 306 -11 41 -12 42 -54 42 l-43 0 -27 -112z m94 -95 c0 -16
-6 -23 -18 -23 -28 0 -30 6 -18 57 l10 46 13 -29 c6 -16 12 -39 13 -51z"/>
<path d="M4047 5669 c-4 -51 -7 -136 -7 -189 l0 -97 77 -7 c139 -11 135 -12
131 37 l-3 42 -64 3 -64 3 4 147 4 147 -36 3 -36 3 -6 -92z"/>
<path d="M3553 5735 c-26 -19 -38 -69 -29 -128 6 -42 7 -43 41 -39 34 4 35 5
35 48 0 37 -3 44 -20 44 -24 0 -27 32 -5 50 16 13 21 40 7 40 -4 0 -17 -7 -29
-15z"/>
<path d="M4327 5704 c-3 -22 -14 -104 -23 -183 -18 -154 -17 -160 32 -161 20
0 22 9 35 113 13 112 13 112 20 57 5 -30 9 -78 10 -107 3 -64 6 -69 46 -77
l31 -7 33 102 c18 57 35 97 37 91 2 -7 -1 -51 -8 -99 -9 -70 -9 -88 2 -94 14
-9 58 -12 58 -4 0 3 9 84 20 182 11 97 18 178 16 181 -7 6 -89 21 -96 17 -3
-2 -21 -53 -40 -114 -19 -61 -38 -111 -41 -111 -6 0 -19 127 -19 191 0 44 -4
47 -63 55 l-44 6 -6 -38z"/>
<path d="M4736 5663 c-7 -23 -66 -325 -66 -339 0 -7 39 -21 88 -33 129 -31
124 -31 134 8 11 41 7 44 -74 61 l-60 13 7 36 c4 20 8 37 9 38 1 1 28 -5 60
-13 32 -8 60 -13 63 -11 2 3 6 20 10 40 l5 36 -61 12 c-62 12 -70 20 -53 60 6
14 13 14 70 1 34 -8 65 -13 68 -10 2 3 7 21 10 40 l6 34 -99 22 c-118 26 -110
26 -117 5z"/>
<path d="M3028 5639 c-29 -11 -26 9 -43 -298 l-6 -104 32 7 c17 3 35 6 40 6 5
0 9 17 9 38 0 36 2 38 43 49 44 13 45 12 72 -31 8 -14 16 -14 48 -6 l38 11
-59 112 c-127 241 -122 235 -174 216z m62 -166 c11 -25 19 -47 18 -48 -2 -2
-13 -6 -25 -9 -22 -7 -23 -5 -23 48 0 31 2 56 5 56 2 0 13 -21 25 -47z"/>
<path d="M5035 5597 c-3 -7 -23 -79 -46 -162 -23 -82 -44 -158 -46 -167 -4
-12 3 -21 22 -28 14 -5 30 -10 34 -10 5 0 18 35 30 78 36 126 37 126 50 27 20
-146 18 -143 57 -155 20 -7 37 -10 39 -8 1 1 24 77 49 168 26 91 49 171 51
177 6 17 -57 34 -67 19 -4 -6 -17 -48 -29 -94 -12 -45 -25 -79 -29 -75 -4 4
-12 53 -19 108 -6 55 -15 103 -20 108 -16 16 -72 26 -76 14z"/>
<path d="M2685 5517 c-59 -59 -66 -158 -16 -255 27 -53 85 -102 120 -102 48 0
99 27 117 63 16 30 24 111 12 122 -6 6 -57 -15 -59 -24 -1 -3 -3 -16 -4 -29
-3 -27 -12 -37 -41 -46 -33 -10 -69 26 -89 89 -32 103 9 165 79 120 18 -12 30
-13 50 -6 35 14 33 33 -9 70 -29 25 -45 31 -81 31 -39 0 -51 -5 -79 -33z"/>
<path d="M5312 5332 c-34 -87 -64 -164 -67 -173 -5 -12 10 -24 60 -48 95 -45
140 -41 191 18 33 38 64 125 64 180 0 71 -29 107 -116 147 l-71 32 -61 -156z
m132 37 c42 -20 50 -57 26 -121 -26 -71 -49 -92 -89 -83 -17 4 -33 11 -37 16
-5 8 64 199 72 199 2 0 14 -5 28 -11z"/>
<path d="M2478 5424 c-23 -12 -26 -18 -19 -37 36 -92 124 -304 131 -310 4 -5
22 -2 39 7 l30 16 -23 58 c-13 31 -27 64 -30 72 -38 102 -83 204 -91 206 -5 2
-22 -3 -37 -12z"/>
<path d="M2322 5343 l-21 -18 43 -87 c24 -49 41 -88 38 -88 -7 0 -136 102
-150 119 -11 14 -16 13 -47 -3 -19 -11 -35 -23 -35 -28 0 -9 147 -319 155
-327 8 -7 55 30 55 44 0 7 -18 49 -40 92 -21 42 -38 78 -37 80 2 1 39 -27 82
-62 44 -35 87 -64 95 -64 8 0 26 9 39 19 l23 20 -75 157 c-42 87 -82 159 -90
161 -7 2 -23 -5 -35 -15z"/>
<path d="M5642 5238 c-67 -125 -112 -216 -112 -225 0 -4 14 -16 30 -25 l31
-17 26 54 c28 56 44 65 76 41 22 -17 22 -43 -2 -97 -22 -49 -21 -53 18 -73
l28 -15 27 70 c15 38 25 77 22 87 -4 13 2 21 24 29 49 19 78 114 47 155 -14
17 -146 108 -159 108 -3 0 -29 -42 -56 -92z m123 -34 c30 -20 38 -40 22 -64
-14 -24 -29 -25 -72 -4 l-34 16 16 34 c18 38 32 42 68 18z"/>
<path d="M1987 5286 c-15 -12 -17 -22 -12 -60 8 -52 35 -65 35 -17 0 16 3 43
6 60 7 34 -1 38 -29 17z"/>
<path d="M3710 5214 c-187 -17 -453 -68 -620 -120 -435 -135 -766 -343 -1119
-701 -173 -174 -185 -184 -305 -253 -171 -98 -172 -98 -157 -141 18 -53 103
-126 161 -138 82 -18 129 5 230 113 203 217 458 463 533 515 12 8 47 36 78 61
71 56 270 193 275 188 2 -2 -17 -42 -41 -89 -54 -105 -87 -196 -116 -319 -30
-129 -32 -384 -5 -510 137 -632 690 -1070 1352 -1070 320 0 612 102 864 301
232 183 400 450 463 739 17 74 21 130 21 255 0 166 -12 253 -53 385 -11 35
-19 66 -17 68 16 15 336 -307 466 -468 25 -30 47 -57 50 -60 4 -3 19 -23 35
-45 17 -22 33 -42 36 -45 3 -3 11 -15 18 -27 12 -24 -1 -63 -32 -95 -7 -7 -35
-43 -62 -79 -116 -155 -269 -317 -436 -463 -159 -138 -301 -237 -445 -309
-129 -65 -407 -143 -619 -174 -165 -24 -495 -24 -660 0 -214 32 -460 98 -610
166 -222 99 -665 332 -889 467 -49 30 -91 54 -94 54 -34 0 289 -225 553 -385
140 -85 535 -280 685 -338 248 -96 357 -121 622 -139 504 -35 1050 92 1403
326 122 80 319 241 442 359 114 111 293 313 335 378 14 23 24 26 75 28 32 1
101 8 153 17 251 41 347 92 313 167 -12 25 -153 185 -314 357 -124 132 -329
321 -381 353 -20 12 -70 51 -113 87 -267 225 -641 406 -1047 505 -259 63 -379
77 -698 80 -157 1 -305 1 -330 -1z m532 -163 c131 -34 220 -72 321 -137 231
-148 388 -355 461 -607 138 -475 -85 -975 -539 -1209 -167 -86 -322 -121 -525
-121 -188 1 -332 34 -491 112 -317 157 -532 443 -591 786 -18 109 -19 131 -8
240 6 66 18 145 25 176 57 220 210 443 405 590 116 86 345 176 505 198 122 17
309 5 437 -28z"/>
<path d="M3870 4944 c-286 -31 -532 -172 -704 -407 -42 -58 -104 -196 -128
-289 -28 -106 -30 -308 -4 -408 61 -236 213 -446 406 -563 167 -102 185 -103
214 -11 11 33 21 66 24 74 3 8 4 21 3 28 -1 6 2 12 7 12 12 0 36 76 28 89 -4
6 -3 11 1 11 5 0 9 25 9 55 0 39 5 60 17 72 11 12 17 13 17 5 0 -7 5 -10 10
-7 6 3 10 21 9 38 0 29 -1 30 -9 10 -5 -13 -12 -23 -15 -23 -4 0 -4 4 0 9 11
19 55 239 55 278 0 17 3 34 8 37 4 2 6 56 5 120 -2 111 -3 117 -34 164 -32 48
-33 48 -88 48 -60 0 -243 19 -326 33 -27 5 -54 7 -60 5 -32 -10 -115 -13 -115
-4 0 5 -6 10 -14 10 -19 0 -37 25 -31 41 5 14 45 35 75 40 23 4 80 -11 80 -22
0 -9 365 -3 381 6 4 3 32 8 61 11 29 3 56 8 61 11 4 2 20 7 35 9 58 11 69 46
37 119 -17 38 -5 110 21 130 25 19 64 19 91 0 38 -26 53 -125 23 -145 -5 -3
-10 -21 -12 -40 -3 -31 1 -36 32 -52 24 -11 60 -17 112 -18 42 0 89 -5 105
-12 15 -7 39 -13 53 -14 243 -16 267 -17 291 -1 39 24 85 31 92 13 4 -9 17
-16 31 -16 13 0 26 -7 30 -15 7 -18 -27 -55 -51 -56 -10 0 -63 -2 -118 -3 -55
-1 -149 -9 -210 -16 -60 -7 -136 -14 -168 -14 l-58 -1 -32 -50 c-26 -40 -32
-60 -33 -110 -2 -86 16 -316 26 -336 16 -29 30 -143 20 -153 -13 -13 -13 -36
0 -36 6 0 10 8 10 17 0 16 1 16 16 1 11 -11 17 -39 20 -90 4 -84 12 -128 23
-128 5 0 14 -21 21 -47 7 -27 17 -53 21 -58 4 -6 10 -22 12 -35 12 -74 49 -85
141 -42 211 99 393 298 468 512 66 190 66 427 -2 601 -43 110 -103 214 -159
273 -17 17 -40 42 -53 56 -115 124 -307 227 -488 263 -80 16 -232 27 -290 21z
m-543 -326 c13 -12 23 -27 23 -33 0 -6 15 -18 32 -27 l33 -15 -53 2 c-28 1
-55 5 -59 9 -15 15 -11 36 8 36 10 0 19 4 19 9 0 10 -39 9 -56 -2 -6 -3 -11 0
-11 8 0 8 4 12 8 10 4 -3 9 2 13 10 7 20 16 19 43 -7z m1276 -15 l-17 -26 29
7 c22 5 26 4 15 -3 -8 -6 -15 -16 -15 -22 0 -7 -11 -16 -25 -19 -14 -4 -55
-21 -92 -39 -37 -17 -73 -31 -79 -31 -7 0 -22 -8 -33 -19 -13 -11 -43 -21 -76
-24 l-55 -5 40 14 c21 8 42 18 45 23 3 4 23 14 45 21 21 7 57 26 79 41 21 16
47 29 56 29 9 0 24 8 33 18 9 9 25 27 37 40 27 30 34 28 13 -5z m54 11 c-3 -3
-12 -4 -19 -1 -8 3 -5 6 6 6 11 1 17 -2 13 -5z m-1377 -50 c0 -2 -7 -4 -15 -4
-8 0 -15 4 -15 10 0 5 7 7 15 4 8 -4 15 -8 15 -10z m175 -36 c18 -8 22 -14 13
-20 -8 -5 -4 -7 12 -6 26 2 81 -25 112 -54 10 -10 28 -18 41 -18 13 0 32 -7
43 -16 19 -15 19 -16 -1 -9 -11 4 -29 9 -40 12 -11 3 -27 7 -35 10 -8 3 -23 7
-32 8 -10 1 -26 9 -36 18 -10 9 -22 17 -26 17 -12 0 -96 40 -96 46 0 3 10 3
23 -1 21 -6 21 -6 3 9 -24 19 -17 20 19 4z"/>
<path d="M3290 4620 c0 -5 5 -10 10 -10 6 0 10 5 10 10 0 6 -4 10 -10 10 -5 0
-10 -4 -10 -10z"/>
<path d="M4524 4543 c-12 -2 -30 -13 -40 -24 -18 -20 -17 -20 12 -4 16 8 34
15 41 15 6 0 15 5 18 10 3 6 3 9 -2 9 -4 -1 -18 -4 -29 -6z"/>
<path d="M3947 3770 c-3 -14 -8 -72 -11 -130 -3 -58 -7 -143 -11 -190 -3 -47
-7 -140 -9 -207 l-3 -123 39 0 c29 0 38 4 39 18 0 9 2 53 5 97 2 44 -1 103 -6
130 -5 28 -12 102 -15 165 -7 166 -20 271 -28 240z"/>
<path d="M4084 3743 c-4 -10 -8 -100 -9 -200 0 -131 -4 -186 -13 -195 -7 -7
-12 -39 -12 -78 0 -60 3 -69 30 -95 16 -15 27 -32 24 -37 -7 -10 76 -1 112 13
21 8 22 9 8 75 -8 38 -12 74 -10 81 3 7 1 13 -4 13 -6 0 -10 5 -10 11 0 6 -6
25 -13 42 -8 18 -22 57 -32 87 -10 30 -25 63 -33 73 -17 19 -21 79 -11 141 8
46 -13 100 -27 69z"/>
<path d="M3788 3665 c10 -87 8 -121 -9 -138 -29 -28 -112 -291 -106 -334 3
-25 10 -30 59 -42 l55 -14 37 39 38 39 -7 75 c-3 41 -10 80 -16 86 -5 6 -8 60
-8 120 2 111 -16 238 -31 214 -6 -10 -9 -9 -13 1 -3 8 -3 -13 1 -46z"/>
<path d="M4121 3654 c0 -11 3 -14 6 -6 3 7 2 16 -1 19 -3 4 -6 -2 -5 -13z"/>
<path d="M2027 5164 c-15 -8 -27 -18 -27 -22 1 -14 175 -305 185 -308 6 -2 21
5 35 15 l25 19 -24 44 c-47 84 -152 257 -159 262 -4 2 -19 -2 -35 -10z"/>
<path d="M5985 5088 c-71 -25 -149 -139 -149 -218 1 -130 124 -192 222 -113
20 17 52 59 70 94 29 54 33 71 28 107 -8 61 -34 99 -81 122 -46 22 -48 23 -90
8z m66 -79 c50 -26 41 -104 -18 -170 -87 -96 -168 -2 -93 110 26 40 61 70 83
71 5 0 17 -5 28 -11z"/>
<path d="M1807 4988 c-15 -11 -27 -24 -27 -29 0 -6 158 -247 195 -296 0 -1 31
21 68 50 37 28 76 59 87 67 l21 15 -23 32 c-13 18 -25 33 -28 33 -3 0 -16 -10
-30 -23 -14 -13 -37 -31 -51 -40 -26 -17 -27 -17 -51 15 -13 18 -42 60 -63 93
-71 109 -67 106 -98 83z"/>
<path d="M1641 4843 c-93 -48 -105 -163 -28 -265 81 -105 202 -116 253 -23 19
36 16 123 -5 149 -10 12 -15 11 -35 -9 -17 -17 -21 -30 -18 -59 5 -43 -11 -66
-45 -66 -36 0 -60 16 -93 62 -34 46 -40 107 -15 128 9 7 31 13 50 12 32 -1 65
18 65 38 0 13 -39 37 -70 45 -15 3 -39 -2 -59 -12z"/>
<path d="M6248 4842 c-30 -18 -58 -67 -58 -102 0 -12 12 -51 26 -86 20 -52 23
-68 14 -79 -16 -20 -22 -19 -49 6 -21 20 -22 32 -7 69 4 9 -5 28 -20 45 l-25
30 -19 -25 c-30 -39 -35 -94 -13 -133 40 -68 115 -94 173 -60 53 31 63 89 30
173 -24 61 -25 89 -5 96 26 10 48 -17 42 -52 -4 -25 0 -37 20 -55 l25 -24 19
24 c40 49 13 143 -50 176 -38 19 -69 19 -103 -3z"/>
<path d="M6477 4614 c-24 -21 -27 -27 -16 -40 10 -13 10 -17 -2 -24 -7 -5 -24
-7 -35 -4 -29 7 -40 -12 -14 -26 29 -15 65 -5 110 30 40 32 41 38 12 73 -19
22 -21 21 -55 -9z"/>
<path d="M6542 4531 c-21 -18 -29 -31 -23 -35 23 -15 12 -38 -17 -35 -40 5
-58 -10 -34 -27 14 -9 28 -11 50 -4 33 9 102 57 102 71 0 4 -10 19 -22 33
l-23 25 -33 -28z"/>
<path d="M5547 2873 c-11 -10 -8 -41 10 -120 17 -71 38 -94 38 -40 0 36 40 65
67 48 20 -12 38 -7 38 11 0 5 -7 8 -14 5 -9 -4 -13 -1 -11 6 2 7 -20 31 -50
55 -54 42 -66 48 -78 35z m73 -83 c0 -4 -10 -11 -22 -17 -22 -10 -23 -8 -26
30 l-3 41 26 -24 c14 -13 25 -26 25 -30z"/>
<path d="M2441 2786 c-26 -64 -40 -116 -31 -116 6 0 9 -3 9 -7 -4 -22 4 -32
30 -43 44 -18 66 -5 94 54 32 67 36 91 18 91 -9 0 -22 -21 -31 -48 -21 -60
-41 -81 -68 -73 -32 11 -34 33 -7 96 29 69 29 66 12 73 -8 3 -18 -7 -26 -27z"/>
<path d="M5433 2795 c-11 -8 -24 -27 -27 -41 -8 -30 11 -87 25 -78 5 3 6 -2 3
-10 -3 -9 5 -21 20 -31 22 -15 31 -16 56 -5 31 13 55 42 43 53 -3 4 -15 0 -27
-8 -30 -22 -53 -18 -72 9 -15 24 -27 96 -15 94 3 0 9 1 14 2 12 4 26 7 38 9
17 2 -1 21 -19 21 -10 0 -27 -7 -39 -15z"/>
<path d="M2581 2659 c-26 -64 -30 -84 -20 -90 10 -6 19 6 32 44 25 66 37 80
37 40 0 -70 12 -121 31 -126 14 -4 23 9 43 65 28 74 31 94 17 102 -5 3 -19
-22 -32 -57 l-23 -62 -6 73 c-6 67 -17 91 -41 92 -3 0 -21 -37 -38 -81z"/>
<path d="M5328 2734 c-7 -6 41 -116 55 -125 5 -3 8 -9 7 -13 -1 -4 1 -12 3
-19 4 -9 7 -9 18 1 11 10 7 25 -24 87 -35 71 -46 83 -59 69z"/>
<path d="M5246 2686 c-52 -23 -69 -81 -41 -136 28 -54 82 -62 132 -21 22 18
22 20 6 60 -18 46 -23 48 -58 25 -30 -19 -24 -37 8 -25 19 8 23 6 22 -13 0
-28 -13 -46 -31 -46 -24 0 -64 47 -64 75 0 33 33 65 66 65 22 0 25 2 14 15
-14 17 -16 17 -54 1z"/>
<path d="M2749 2598 c-13 -40 -25 -79 -27 -85 -2 -7 3 -13 11 -13 15 0 23 17
51 104 20 61 20 66 2 66 -9 0 -23 -28 -37 -72z"/>
<path d="M2835 2628 c-2 -7 -13 -44 -25 -81 -22 -69 -22 -77 2 -81 7 -1 19 -5
26 -10 36 -22 116 24 96 56 -4 7 -3 8 4 4 15 -9 16 47 2 75 -20 36 -96 63
-105 37z m65 -38 c40 -40 14 -110 -41 -110 -16 0 -29 5 -29 11 0 25 32 119 41
119 5 0 18 -9 29 -20z"/>
<path d="M5073 2605 c-18 -8 -33 -16 -33 -19 0 -3 10 -31 21 -63 12 -32 26
-68 30 -80 5 -14 14 -21 23 -17 11 4 13 12 5 31 -21 55 -3 70 38 31 23 -22 53
-33 53 -19 0 4 -13 20 -29 35 -24 23 -29 35 -24 57 6 32 -10 59 -36 59 -9 -1
-31 -7 -48 -15z m52 -45 c0 -31 -31 -39 -40 -11 -8 26 2 43 23 39 11 -2 17
-13 17 -28z"/>
<path d="M2981 2499 c-31 -51 -41 -73 -33 -81 8 -8 13 -7 18 5 12 33 84 13 84
-23 0 -11 7 -20 15 -20 14 0 16 50 6 178 -1 6 -11 12 -23 12 -17 -1 -34 -18
-67 -71z m69 -4 c0 -31 -3 -35 -25 -35 -29 0 -31 12 -7 45 24 34 32 31 32 -10z"/>
<path d="M4980 2555 c0 -9 7 -32 16 -53 8 -20 16 -50 18 -67 2 -27 -1 -30 -31
-33 -35 -2 -47 14 -59 75 -9 45 -19 62 -32 54 -10 -6 -10 -17 0 -54 7 -26 16
-47 21 -47 4 0 5 -5 2 -11 -11 -16 25 -49 55 -49 32 0 70 33 70 62 0 42 -32
138 -46 138 -8 0 -14 -7 -14 -15z"/>
<path d="M3127 2454 c-10 -47 -15 -89 -12 -92 3 -4 29 -6 57 -7 43 0 53 4 70
26 23 30 26 92 7 115 -13 16 -40 29 -82 39 -21 6 -23 0 -40 -81z m81 40 c29
-20 30 -76 2 -104 -38 -38 -73 -18 -60 33 4 18 11 44 14 60 7 31 13 33 44 11z"/>
<path d="M4682 2519 c-7 -12 -11 -24 -8 -27 6 -6 35 27 36 41 0 14 -15 7 -28
-14z"/>
<path d="M4777 2498 c-37 -10 -39 -12 -32 -45 14 -77 40 -143 52 -135 9 6 10
17 4 40 -13 45 6 52 40 14 16 -18 33 -32 39 -32 15 0 12 26 -4 39 -17 14 -40
75 -26 66 16 -10 11 32 -6 49 -17 18 -15 18 -67 4z m49 -33 c7 -18 -12 -45
-32 -45 -18 0 -19 46 -1 53 21 9 27 7 33 -8z"/>
<path d="M3650 2475 c-7 -9 -10 -18 -7 -21 6 -7 47 18 47 28 0 14 -27 9 -40
-7z"/>
<path d="M3367 2463 c-3 -10 -8 -38 -12 -63 -3 -25 -8 -57 -11 -72 -4 -21 -2
-28 10 -28 10 0 17 15 21 48 12 89 18 91 34 13 9 -41 21 -76 28 -78 15 -5 66
94 57 109 -4 7 -3 8 4 4 7 -4 12 -2 12 3 0 6 4 11 9 11 5 0 5 -16 0 -37 -12
-51 -11 -103 1 -103 10 0 14 12 30 104 5 32 7 62 4 67 -11 18 -49 2 -64 -27
-46 -87 -42 -86 -60 -9 -13 58 -19 71 -37 73 -14 2 -23 -3 -26 -15z"/>
<path d="M4683 2472 c-12 -7 -10 -18 22 -159 8 -33 25 -28 25 6 0 24 -27 150
-34 158 -1 1 -7 -1 -13 -5z"/>
<path d="M4615 2414 c3 -25 8 -55 10 -65 6 -28 -3 -46 -26 -52 -30 -8 -47 18
-55 83 -5 44 -11 60 -22 60 -12 0 -14 -10 -8 -57 10 -84 15 -99 39 -110 29
-13 84 2 97 27 7 14 7 39 0 82 -5 35 -10 66 -10 71 0 4 -7 7 -16 7 -14 0 -15
-7 -9 -46z"/>
<path d="M3585 2354 c-8 -96 -4 -104 53 -104 22 0 32 5 32 15 0 10 -10 15 -31
15 -27 0 -30 3 -27 28 3 23 7 27 31 24 19 -2 27 2 27 13 0 9 -9 15 -25 15 -20
0 -25 5 -25 26 0 25 2 26 35 21 45 -7 49 18 4 27 -67 13 -66 14 -74 -80z"/>
<path d="M4362 2412 c-28 -22 -38 -78 -23 -125 13 -39 31 -49 83 -46 18 2 43
-3 55 -9 12 -7 24 -12 27 -12 12 0 6 28 -6 32 -9 3 -13 26 -13 68 -1 56 -4 65
-28 86 -33 28 -63 30 -95 6z m77 -26 c7 -8 11 -35 9 -62 -2 -38 -7 -48 -26
-55 -32 -12 -62 20 -62 65 0 55 50 87 79 52z"/>
<path d="M3717 2369 c-4 -30 -7 -71 -7 -91 l0 -38 49 0 c42 0 53 4 70 26 26
33 28 94 4 123 -12 13 -35 23 -64 27 l-46 6 -6 -53z m94 -6 c7 -20 7 -39 -1
-65 -9 -33 -15 -38 -40 -38 -26 0 -30 4 -30 28 0 15 3 44 6 65 6 31 11 37 31
37 16 0 27 -8 34 -27z"/>
<path d="M3890 2398 c0 -7 -3 -43 -6 -80 -4 -38 -3 -75 0 -85 13 -32 24 2 31
90 6 75 4 87 -9 87 -9 0 -16 -6 -16 -12z"/>
<path d="M4004 2399 c-47 -17 -71 -99 -43 -150 20 -37 90 -46 103 -13 4 10 -2
12 -22 8 -39 -8 -64 22 -60 72 4 45 38 70 71 53 15 -9 18 -8 15 7 -4 22 -37
34 -64 23z"/>
<path d="M4123 2395 c-42 -29 -48 -118 -12 -161 21 -26 100 -13 121 20 4 6 8
33 8 59 0 79 -61 121 -117 82z m73 -32 c29 -39 7 -123 -32 -123 -37 0 -58 75
-34 121 13 24 48 25 66 2z"/>
</g>
</svg>
